<?xml version="1.0" encoding="UTF-8"?>
<svg id="Layer_1" xmlns="http://www.w3.org/2000/svg" version="1.1" viewBox="0 0 50 50">
  <!-- Generator: Adobe Illustrator 30.1.0, SVG Export Plug-In . SVG Version: 2.1.1 Build 136)  -->
  <defs>
    <style>
      .st0, .st1 {
        fill: #fff;
      }

      .st1 {
        isolation: isolate;
        opacity: .2;
      }
    </style>
  </defs>
  <path class="st0" d="M45.83.37H4.17C1.95.37.14,2.18.14,4.4v28.3c0,2.22,1.81,4.02,4.02,4.02h4.94l-.65,9.86c.07,1.34.94,2.48,2.22,2.89.33.11.67.16,1,.16.95,0,1.88-.44,2.55-1.26l7.88-11.65h23.73c2.22,0,4.02-1.8,4.02-4.02V4.4c0-2.22-1.81-4.02-4.02-4.02ZM48.01,32.69c0,1.2-.98,2.18-2.18,2.18h-24.21c-.31,0-.59.15-.76.4l-8.11,11.99c-.56.68-1.28.51-1.5.44-.21-.07-.9-.36-.95-1.13l.71-10.73c.02-.25-.07-.5-.25-.69-.17-.19-.42-.29-.67-.29h-5.93c-1.2,0-2.18-.98-2.18-2.18V4.4c0-1.2.98-2.18,2.18-2.18h41.67c1.2,0,2.18.98,2.18,2.18v28.3Z"/>
  <path class="st1" d="M45.83,4.02H4.15c-.22,0-.4.18-.4.36v28.31c0,.22.18.4.4.4h5.93c.76,0,1.47.31,2.01.85.49.58.76,1.29.71,2.05l-.58,8.92,7.18-10.61c.49-.76,1.34-1.2,2.23-1.2h24.2c.22,0,.4-.18.4-.4V4.38c0-.18-.18-.36-.4-.36ZM26.5,28.93c-.09.06-.19.12-.29.16-.35.2-.78.31-1.21.31s-.81-.1-1.19-.3c-.15-.07-.3-.16-.42-.26-1.69-1.17-10.71-7.78-10.81-13.86-.03-2.3.76-4.27,2.31-5.68,1.17-1.07,2.65-1.7,4.28-1.82.04,0,.46-.02.5-.02,1.83,0,3.62.7,5.03,1.97l.29.26.29-.26c1.42-1.28,3.21-1.98,5.02-1.98.05,0,.49.02.53.02,1.62.12,3.11.75,4.28,1.82,1.54,1.42,2.34,3.38,2.3,5.67-.1,6.09-9.12,12.69-10.92,13.95Z"/>
  <path class="st0" d="M30.71,9.26c-1.5-.11-3.03.44-4.22,1.5l-1.49,1.34-1.49-1.34c-1.18-1.06-2.69-1.61-4.22-1.5-1.23.09-2.34.56-3.21,1.36-1.17,1.07-1.75,2.53-1.73,4.33.09,5.41,9.75,12.23,10.16,12.52.01.01.03,0,.05.01.13.08.28.14.43.14s.3-.05.43-.14c.01,0,.03,0,.05-.01.41-.29,10.08-7.11,10.16-12.52.03-1.8-.55-3.26-1.72-4.33-.87-.8-1.98-1.27-3.21-1.36Z"/>
</svg>