<?xml version="1.0" encoding="UTF-8"?>
<svg id="Layer_1" xmlns="http://www.w3.org/2000/svg" version="1.1" xmlns:xlink="http://www.w3.org/1999/xlink" viewBox="0 0 2000 2000">
  <!-- Generator: Adobe Illustrator 30.1.0, SVG Export Plug-In . SVG Version: 2.1.1 Build 136)  -->
  <defs>
    <style>
      .st0 {
        fill: url(#linear-gradient2);
      }

      .st1 {
        fill: #fff;
      }

      .st2 {
        fill: url(#linear-gradient1);
      }

      .st3 {
        fill: #d9d7da;
      }

      .st4 {
        fill: #ffae00;
      }

      .st5 {
        fill: url(#linear-gradient4);
      }

      .st6 {
        fill: url(#linear-gradient5);
      }

      .st7 {
        fill: url(#linear-gradient3);
      }

      .st8 {
        fill: #f35325;
      }

      .st9 {
        fill: url(#linear-gradient);
      }
    </style>
    <linearGradient id="linear-gradient" x1="-1523.08" y1="521.29" x2="-784.93" y2="521.29" gradientUnits="userSpaceOnUse">
      <stop offset="0" stop-color="#ffae00"/>
      <stop offset="1" stop-color="#ff7500"/>
    </linearGradient>
    <linearGradient id="linear-gradient1" x1="-723.42" y1="787.33" x2="-623.75" y2="787.33" xlink:href="#linear-gradient"/>
    <linearGradient id="linear-gradient2" x1="-680.6" y1="1044.04" x2="-604" y2="1044.04" xlink:href="#linear-gradient"/>
    <linearGradient id="linear-gradient3" x1="-1484.3" y1="1475.7" x2="-823.71" y2="1475.7" xlink:href="#linear-gradient"/>
    <linearGradient id="linear-gradient4" x1="-1704" y1="1044.03" x2="-1627.4" y2="1044.03" xlink:href="#linear-gradient"/>
    <linearGradient id="linear-gradient5" x1="-1684.25" y1="787.33" x2="-1584.58" y2="787.33" xlink:href="#linear-gradient"/>
  </defs>
  <g>
    <path class="st4" d="M1000,1550c-303.27,0-550-246.73-550-550s246.73-550,550-550,550,246.73,550,550-246.73,550-550,550ZM1000,513.77c-268.11,0-486.23,218.12-486.23,486.23s218.12,486.23,486.23,486.23,486.23-218.12,486.23-486.23-218.12-486.23-486.23-486.23Z"/>
    <polygon class="st1" points="894.12 1262.83 761.07 1057.48 698.7 1262.83 855.18 1262.83 649.2 1402.17 464.67 1402.17 600.06 948.37 518.2 866.52 691.81 866.52 484.96 604.84 848.7 604.84 759.02 694.51 1000 997.11 1240.97 694.51 1151.3 604.84 1515.04 604.84 1308.2 866.52 1481.81 866.52 1399.94 948.38 1535.33 1402.17 1350.8 1402.17 1144.82 1262.83 1301.3 1262.83 1238.93 1057.48 1105.87 1262.83 1000 1426.2 894.12 1262.83"/>
    <polygon class="st4" points="1367.6 940.2 1412.62 895.18 1249.02 895.18 1455.86 633.5 1220.49 633.5 1279.33 692.34 1000 1043.1 720.67 692.34 779.51 633.5 544.13 633.5 750.98 895.18 587.38 895.18 632.4 940.2 503.12 1373.51 640.43 1373.51 761.68 1291.48 660.04 1291.48 751.56 990.13 1000 1373.51 1248.44 990.13 1339.96 1291.48 1238.32 1291.48 1359.57 1373.51 1496.88 1373.51 1367.6 940.2"/>
  </g>
  <g>
    <g>
      <path class="st9" d="M-1418.9,592.58c76.27-49.76,167.23-78.81,264.9-78.81s188.63,29.05,264.9,78.81h104.18c-97.66-88.55-227.17-142.58-369.07-142.58s-271.41,54.03-369.08,142.58h104.18Z"/>
      <path class="st2" d="M-690.11,854.26h66.36c-13.07-47.48-32.32-92.41-56.89-133.86l-42.78,54.12c13.34,25.37,24.57,52,33.31,79.74Z"/>
      <path class="st0" d="M-619.45,870.89l-54.12,54.12c3.8,24.45,5.8,49.49,5.8,74.99,0,38.03-4.53,75.01-12.83,110.55l31.81,106.64c28.77-66.67,44.79-140.08,44.79-217.18,0-44.47-5.44-87.67-15.45-129.11Z"/>
      <path class="st7" d="M-879.98,1401.4c-78.08,53.47-172.45,84.83-274.02,84.83s-195.94-31.36-274.02-84.83l-56.27,38.07c92.04,69.35,206.44,110.53,330.3,110.53s238.26-41.18,330.3-110.53l-56.27-38.07Z"/>
      <path class="st5" d="M-1640.23,1000c0-25.5,2-50.54,5.8-74.99l-54.12-54.12c-10.01,41.44-15.45,84.64-15.45,129.11,0,77.1,16.01,150.51,44.78,217.18l31.82-106.64c-8.3-35.54-12.83-72.51-12.83-110.54Z"/>
      <path class="st6" d="M-1617.89,854.26c8.74-27.75,19.97-54.38,33.31-79.74l-42.78-54.12c-24.58,41.45-43.82,86.38-56.89,133.86h66.36Z"/>
    </g>
    <polygon class="st3" points="-786.4 956.68 -741.38 911.65 -904.98 911.65 -698.14 649.97 -933.51 649.97 -874.67 708.82 -1154 1059.58 -1433.33 708.82 -1374.49 649.97 -1609.87 649.97 -1403.02 911.65 -1566.62 911.65 -1521.6 956.68 -1650.88 1389.98 -1513.58 1389.98 -1392.32 1307.96 -1493.96 1307.96 -1402.44 1006.61 -1154 1389.98 -905.56 1006.61 -814.04 1307.96 -915.68 1307.96 -794.43 1389.98 -657.12 1389.98 -786.4 956.68"/>
    <polygon class="st1" points="-786.4 956.68 -741.38 911.65 -904.98 911.65 -698.14 649.97 -933.51 649.97 -874.67 708.82 -1154 1059.58 -1154 1389.98 -905.56 1006.61 -814.04 1307.96 -915.68 1307.96 -794.43 1389.98 -657.12 1389.98 -786.4 956.68"/>
  </g>
  <g>
    <g>
      <path class="st1" d="M1463.89-1306h66.36c-13.07-47.49-32.32-92.41-56.89-133.86l-42.78,54.12c13.34,25.37,24.57,52,33.31,79.74Z"/>
      <path class="st1" d="M1534.55-1289.37l-54.12,54.12c3.8,24.45,5.8,49.49,5.8,74.99,0,38.03-4.53,75.01-12.83,110.55l31.81,106.63c28.77-66.67,44.78-140.08,44.78-217.19,0-44.47-5.44-87.67-15.45-129.11Z"/>
      <path class="st1" d="M735.1-1567.68c76.27-49.76,167.23-78.81,264.9-78.81s188.63,29.05,264.9,78.81h104.17c-97.66-88.55-227.17-142.58-369.07-142.58s-271.41,54.03-369.07,142.58h104.17Z"/>
      <path class="st1" d="M1274.02-758.86c-78.08,53.47-172.44,84.83-274.02,84.83s-195.94-31.36-274.02-84.83l-56.27,38.07c92.04,69.35,206.44,110.53,330.3,110.53s238.26-41.18,330.29-110.53l-56.27-38.07Z"/>
      <path class="st1" d="M536.11-1306c8.74-27.75,19.97-54.38,33.31-79.74l-42.78-54.12c-24.58,41.45-43.82,86.38-56.89,133.86h66.36Z"/>
      <path class="st1" d="M513.77-1160.26c0-25.5,2-50.54,5.8-74.99l-54.12-54.12c-10.01,41.44-15.45,84.64-15.45,129.11,0,77.1,16.02,150.51,44.78,217.18l31.82-106.64c-8.3-35.54-12.83-72.51-12.83-110.54Z"/>
    </g>
    <polygon class="st1" points="1367.6 -1203.59 1412.62 -1248.61 1249.02 -1248.61 1455.87 -1510.29 1220.49 -1510.29 1279.33 -1451.44 1000 -1100.68 720.67 -1451.44 779.51 -1510.29 544.14 -1510.29 750.98 -1248.61 587.38 -1248.61 632.4 -1203.59 503.12 -770.28 640.43 -770.28 761.68 -852.3 660.04 -852.3 751.56 -1153.66 1000 -770.28 1248.44 -1153.66 1339.96 -852.3 1238.32 -852.3 1359.57 -770.28 1496.88 -770.28 1367.6 -1203.59"/>
  </g>
  <g>
    <g>
      <path class="st8" d="M-1418.9-1567.68c76.27-49.76,167.23-78.81,264.9-78.81s188.63,29.05,264.9,78.81h104.18c-97.66-88.55-227.17-142.58-369.07-142.58s-271.41,54.03-369.08,142.58h104.18Z"/>
      <path class="st8" d="M-619.45-1289.37l-54.12,54.12c3.8,24.45,5.8,49.49,5.8,74.99,0,38.03-4.53,75.01-12.83,110.55l31.81,106.63c28.77-66.67,44.79-140.08,44.79-217.19,0-44.47-5.44-87.67-15.45-129.11Z"/>
      <path class="st8" d="M-690.11-1306.01h66.36c-13.07-47.48-32.32-92.41-56.89-133.86l-42.78,54.12c13.34,25.37,24.57,52,33.31,79.74Z"/>
      <path class="st8" d="M-879.98-758.86c-78.08,53.47-172.45,84.83-274.02,84.83s-195.94-31.36-274.02-84.83l-56.27,38.07c92.04,69.35,206.44,110.53,330.3,110.53s238.26-41.18,330.29-110.53l-56.27-38.07Z"/>
      <path class="st8" d="M-1617.89-1306.01c8.74-27.75,19.97-54.38,33.31-79.75l-42.78-54.12c-24.58,41.45-43.82,86.38-56.89,133.86h66.36Z"/>
      <path class="st8" d="M-1640.23-1160.26c0-25.5,2-50.54,5.8-74.99l-54.12-54.12c-10.01,41.44-15.45,84.64-15.45,129.11,0,77.1,16.02,150.51,44.78,217.18l31.82-106.64c-8.3-35.54-12.83-72.51-12.83-110.54Z"/>
    </g>
    <polygon class="st1" points="-786.4 -1203.59 -741.38 -1248.61 -904.98 -1248.61 -698.14 -1510.29 -933.51 -1510.29 -874.67 -1451.44 -1154 -1100.68 -1433.33 -1451.44 -1374.49 -1510.29 -1609.87 -1510.29 -1403.02 -1248.61 -1566.63 -1248.61 -1521.6 -1203.59 -1650.88 -770.28 -1513.58 -770.28 -1392.32 -852.3 -1493.96 -852.3 -1402.44 -1153.66 -1154 -770.28 -905.56 -1153.66 -814.04 -852.3 -915.68 -852.3 -794.43 -770.28 -657.12 -770.28 -786.4 -1203.59"/>
  </g>
</svg>